<?xml version="1.0" encoding="utf-8"?>
<!-- Generator: Adobe Illustrator 24.0.2, SVG Export Plug-In . SVG Version: 6.00 Build 0)  -->
<svg version="1.1" id="Layer_1" xmlns="http://www.w3.org/2000/svg" xmlns:xlink="http://www.w3.org/1999/xlink" x="0px" y="0px"
	 viewBox="0 0 1218.9 255.1" style="enable-background:new 0 0 1218.9 255.1;" xml:space="preserve">
<style type="text/css">
	.st0{fill:#EC1D24;}
</style>
<title>OBORTECH logo_H_clean</title>
<g id="Layer_2_1_">
	<g id="Layer_1-2">
		<path class="st0" d="M408.2,125.1c0.1,9.5-1.2,19-3.9,28.1c-2.3,7.7-6.3,14.9-11.6,21c-5.2,5.8-11.8,10.3-19.1,13.2
			c-7.6,3-16.4,4.5-26.3,4.5c-9.8,0-18.4-1.3-25.7-3.9c-7-2.3-13.3-6.4-18.3-11.8c-5.2-5.8-8.9-12.7-11-20.1
			c-2.4-8.1-3.7-17.8-3.7-28.9c-0.1-9.3,1.2-18.6,3.9-27.6c2.3-7.7,6.3-14.8,11.6-20.8c5.3-5.8,11.8-10.3,19.1-13.2
			c7.6-3.1,16.4-4.6,26.4-4.6c8.6-0.2,17.2,1.1,25.3,3.8c7,2.3,13.3,6.4,18.4,11.8c5.2,5.7,9,12.6,11.1,20
			C406.9,104.7,408.2,114.2,408.2,125.1z M381.2,126.5c0-6.1-0.5-12.1-1.6-18.1c-0.9-5-2.7-9.7-5.3-14c-2.5-3.8-5.9-6.9-10-9
			c-4.2-2.1-9.4-3.2-15.6-3.2s-11.5,1.2-15.8,3.6c-4.1,2.3-7.7,5.6-10.2,9.5c-2.7,4.2-4.6,9-5.5,13.9c-1.1,5.5-1.6,11.2-1.6,16.8
			c-0.1,6.2,0.5,12.5,1.6,18.6c0.8,5,2.6,9.8,5.3,14.1c2.4,3.9,5.9,7,10,8.9c4.2,2.1,9.4,3.1,15.7,3.1s11.6-1.2,15.8-3.5
			c4.2-2.3,7.7-5.6,10.2-9.6c2.7-4.3,4.6-9.1,5.5-14.1C380.7,138,381.3,132.3,381.2,126.5L381.2,126.5z"/>
		<path class="st0" d="M521.3,151.9c0.1,4.1-0.6,8.3-1.9,12.2c-1.2,3.5-2.9,6.7-5.1,9.6c-2.2,2.8-4.8,5.3-7.8,7.2
			c-3.1,2.1-6.5,3.7-10,5c-3.8,1.3-7.7,2.3-11.7,2.9c-4.6,0.7-9.2,1-13.8,0.9h-33.6c-2,0.1-3.9-0.6-5.4-1.9
			c-1.5-1.3-2.2-3.3-2.2-6.2V71.5c0-2.9,0.7-4.9,2.2-6.2c1.5-1.3,3.4-2,5.4-1.9h31.7c6.6-0.1,13.2,0.6,19.7,2
			c4.9,1.1,9.5,3.1,13.6,5.9c3.6,2.6,6.5,6,8.4,10c2,4.5,3.1,9.3,2.9,14.3c0,2.9-0.4,5.8-1.2,8.6c-1.5,5.3-4.6,9.9-8.9,13.2
			c-2.3,1.7-4.8,3.1-7.5,4.1c3.5,0.6,6.8,1.8,9.9,3.4c3,1.6,5.7,3.7,7.9,6.3c2.3,2.7,4.1,5.7,5.3,9
			C520.7,144,521.3,147.9,521.3,151.9z M488.1,98.7c0-2.3-0.4-4.7-1.2-6.8c-0.7-1.9-1.9-3.7-3.5-5c-1.7-1.5-3.7-2.5-5.9-3.2
			c-3.1-0.8-6.3-1.2-9.5-1.1h-13v32.8h14.4c3,0.1,6-0.3,8.9-1.3c2.1-0.8,4-2,5.5-3.6c1.5-1.5,2.6-3.4,3.2-5.4
			C487.7,103.1,488.1,100.9,488.1,98.7z M494.6,152.8c0-2.7-0.5-5.4-1.5-7.9c-0.9-2.3-2.4-4.3-4.3-5.8c-2.1-1.7-4.6-2.9-7.2-3.6
			c-3.7-0.9-7.6-1.4-11.4-1.3H455v35.9h18.6c3,0.1,6.1-0.3,9-1.1c2.3-0.7,4.5-1.8,6.4-3.3c1.8-1.5,3.2-3.4,4.2-5.5
			C494.1,157.9,494.7,155.4,494.6,152.8L494.6,152.8z"/>
		<path class="st0" d="M655.5,125.1c0.1,9.5-1.2,19-3.9,28.1c-2.3,7.7-6.3,14.9-11.6,21c-5.2,5.8-11.8,10.3-19.1,13.2
			c-7.6,3-16.4,4.5-26.3,4.5c-9.8,0-18.4-1.3-25.7-3.9c-7-2.4-13.3-6.4-18.3-11.8c-5.2-5.8-8.9-12.7-11-20.1
			c-2.4-8.1-3.7-17.8-3.7-28.9c-0.1-9.3,1.2-18.7,3.9-27.6c2.3-7.7,6.3-14.8,11.6-20.8c5.3-5.8,11.8-10.3,19.1-13.2
			c7.6-3.1,16.4-4.6,26.4-4.6c8.6-0.1,17.2,1.1,25.3,3.8c7,2.3,13.3,6.4,18.4,11.8c5.2,5.7,9,12.6,11.1,20
			C654.3,104.7,655.5,114.2,655.5,125.1z M628.6,126.5c0-6.1-0.5-12.1-1.6-18.1c-0.8-5-2.7-9.7-5.3-14c-2.5-3.8-5.9-7-10-9
			c-4.2-2.1-9.4-3.2-15.6-3.2s-11.5,1.2-15.8,3.6c-4.1,2.3-7.7,5.6-10.2,9.6c-2.7,4.2-4.6,9-5.5,13.9c-1.1,5.5-1.6,11.2-1.6,16.8
			c-0.1,6.2,0.5,12.5,1.6,18.6c0.8,5,2.6,9.8,5.3,14.1c2.4,3.9,5.9,7,10,8.9c4.2,2.1,9.4,3.1,15.7,3.1s11.6-1.2,15.8-3.5
			c4.2-2.3,7.7-5.6,10.2-9.6c2.7-4.3,4.6-9.1,5.5-14.1C628.1,138,628.6,132.3,628.6,126.5z"/>
		<path class="st0" d="M770.9,186.5c0,0.6-0.1,1.2-0.4,1.8c-0.4,0.6-1.1,1.1-1.9,1.2c-1.4,0.4-2.8,0.6-4.3,0.7
			c-1.9,0.1-4.5,0.2-7.7,0.2c-2.7,0-4.9-0.1-6.5-0.2c-1.3-0.1-2.6-0.3-3.9-0.7c-0.8-0.2-1.5-0.7-2-1.4c-0.4-0.6-0.8-1.3-1-2
			l-11.3-28.2c-1.4-3.2-2.7-6-4-8.5c-1.2-2.3-2.6-4.3-4.3-6.2c-1.6-1.6-3.4-2.9-5.5-3.8c-2.3-0.9-4.8-1.3-7.2-1.3h-8v48.1
			c0,0.6-0.2,1.3-0.6,1.8c-0.6,0.6-1.3,1.1-2.1,1.3c-1.3,0.4-2.6,0.7-3.9,0.8c-4.1,0.4-8.3,0.4-12.5,0c-1.4-0.1-2.7-0.4-4-0.8
			c-0.8-0.2-1.5-0.7-2-1.3c-0.4-0.5-0.6-1.1-0.6-1.8V71.5c0-2.9,0.7-4.9,2.2-6.2c1.5-1.3,3.4-2,5.4-1.9h32.7c3.3,0,6.1,0.1,8.2,0.2
			c2.1,0.1,4.1,0.3,5.9,0.5c4.7,0.6,9.3,1.9,13.7,3.7c3.9,1.6,7.4,4,10.3,6.9c2.8,2.8,5,6.2,6.5,10c1.6,4.3,2.3,8.8,2.2,13.3
			c0,3.9-0.5,7.8-1.6,11.6c-1,3.4-2.6,6.5-4.7,9.4c-2.1,2.8-4.8,5.2-7.7,7.1c-3.2,2.1-6.8,3.7-10.5,4.9c1.9,0.9,3.7,2,5.3,3.3
			c1.7,1.4,3.3,3,4.7,4.7c1.6,2,2.9,4.1,4.2,6.4c1.4,2.6,2.7,5.3,3.8,8l10.7,24.9c1,2.5,1.6,4.3,2,5.4
			C770.7,184.6,770.8,185.5,770.9,186.5z M737.8,100.7c0.1-3.7-0.8-7.4-2.8-10.6c-1.9-2.9-5-4.9-9.3-6.1c-1.5-0.4-3-0.6-4.5-0.8
			c-2.3-0.2-4.6-0.3-6.9-0.3h-11.6v35.8h13.1c3.2,0.1,6.5-0.4,9.6-1.3c2.5-0.8,4.8-2,6.8-3.7c1.8-1.6,3.2-3.5,4.1-5.7
			C737.3,105.8,737.8,103.3,737.8,100.7z"/>
		<path class="st0" d="M871.9,74c0,1.6-0.1,3.2-0.2,4.8c-0.1,1.1-0.3,2.2-0.7,3.2c-0.2,0.7-0.7,1.3-1.2,1.8c-0.5,0.4-1,0.6-1.6,0.6
			h-31.6v101.8c0,0.6-0.2,1.3-0.6,1.8c-0.6,0.6-1.3,1.1-2.1,1.3c-1.3,0.4-2.6,0.7-4,0.8c-4.1,0.4-8.3,0.4-12.4,0
			c-1.4-0.1-2.7-0.4-4-0.8c-0.8-0.2-1.5-0.7-2.1-1.3c-0.4-0.5-0.6-1.1-0.6-1.8V84.4H779c-0.6,0-1.2-0.2-1.7-0.6
			c-0.5-0.5-0.9-1.1-1.2-1.8c-0.4-1-0.6-2.1-0.7-3.2c-0.2-1.6-0.3-3.2-0.2-4.8c0-1.7,0.1-3.3,0.2-5c0.1-1.1,0.4-2.2,0.7-3.3
			c0.2-0.7,0.6-1.3,1.2-1.8c0.5-0.4,1.1-0.6,1.7-0.5H868c0.6,0,1.1,0.2,1.6,0.5c0.6,0.5,1,1.1,1.2,1.8c0.4,1.1,0.6,2.2,0.7,3.3
			C871.8,70.6,871.9,72.3,871.9,74z"/>
		<path class="st0" d="M961.7,179.7c0,1.6-0.1,3.2-0.2,4.7c-0.1,1.1-0.4,2.1-0.7,3.1c-0.2,0.7-0.7,1.3-1.2,1.7
			c-0.5,0.4-1,0.5-1.6,0.5h-63.5c-2,0.1-3.9-0.6-5.4-1.9c-1.5-1.3-2.2-3.3-2.2-6.2V71.5c0-2.9,0.7-4.9,2.2-6.2
			c1.5-1.3,3.4-2,5.4-1.9h63.1c0.6,0,1.1,0.2,1.6,0.5c0.5,0.4,1,1,1.2,1.7c0.4,1,0.6,2,0.8,3.1c0.2,1.6,0.3,3.2,0.2,4.8
			c0,1.6-0.1,3.1-0.2,4.6c-0.1,1.1-0.4,2.1-0.7,3.1c-0.2,0.7-0.6,1.3-1.2,1.7c-0.4,0.4-1,0.5-1.6,0.5h-45.1v30.9h38.2
			c0.6,0,1.1,0.2,1.6,0.5c0.5,0.4,1,1,1.2,1.7c0.4,1,0.6,2,0.7,3c0.3,3.1,0.3,6.2,0,9.3c-0.1,1-0.3,2-0.7,3
			c-0.2,0.6-0.7,1.2-1.2,1.6c-0.5,0.3-1,0.5-1.6,0.5h-38.2v35.6h45.5c0.6,0,1.1,0.2,1.6,0.5c0.6,0.4,1,1,1.2,1.7
			c0.4,1,0.6,2,0.7,3.1C961.6,176.6,961.7,178.1,961.7,179.7z"/>
		<path class="st0" d="M1068.8,170.6c0,1.6,0,3-0.2,4.1c-0.1,1-0.2,2-0.4,2.9c-0.2,0.7-0.4,1.4-0.8,2.1c-0.4,0.7-1,1.4-1.6,2
			c-1.3,1.1-2.6,2.1-4.2,2.9c-2.4,1.3-4.9,2.5-7.5,3.4c-3.3,1.2-6.7,2.1-10.2,2.7c-4.1,0.7-8.2,1.1-12.3,1.1c-8,0.1-15.9-1.2-23.4-4
			c-6.8-2.6-12.9-6.7-17.8-12c-5.1-5.7-9-12.5-11.2-19.9c-2.6-7.9-3.9-17.2-3.9-27.7c-0.2-9.7,1.3-19.4,4.3-28.6
			c2.5-7.7,6.6-14.9,12-21c5.1-5.6,11.4-10.1,18.5-12.9c7.6-3,15.6-4.5,23.8-4.4c3.4,0,6.8,0.3,10.2,0.9c3.1,0.5,6.1,1.3,9,2.3
			c2.6,0.9,5.1,2,7.5,3.3c1.7,0.9,3.2,1.9,4.6,3.2c0.7,0.7,1.3,1.4,1.8,2.2c0.4,0.7,0.6,1.5,0.8,2.2c0.2,1.1,0.4,2.1,0.4,3.2
			c0.1,1.2,0.2,2.8,0.2,4.6s-0.1,3.6-0.2,5c-0.1,1.1-0.3,2.2-0.7,3.3c-0.2,0.7-0.6,1.3-1.2,1.8c-0.4,0.4-1,0.6-1.6,0.6
			c-1.4-0.2-2.7-0.8-3.7-1.7c-1.9-1.4-3.8-2.7-5.8-3.8c-2.7-1.5-5.5-2.8-8.5-3.8c-3.8-1.2-7.8-1.8-11.8-1.7
			c-9.3-0.2-18.1,4.2-23.5,11.9c-2.9,4.2-5.1,8.9-6.3,13.8c-1.5,6-2.2,12.1-2.2,18.3c-0.1,6.5,0.7,13,2.3,19.3
			c1.3,4.9,3.5,9.5,6.6,13.4c2.7,3.4,6.2,6.1,10.2,7.9c4.3,1.8,8.9,2.7,13.5,2.6c4,0.1,8-0.5,11.8-1.6c3-0.9,5.8-2.1,8.5-3.6
			c2.4-1.3,4.3-2.5,5.9-3.5c1-0.8,2.3-1.4,3.6-1.6c0.5,0,1.1,0.1,1.6,0.4c0.5,0.4,0.8,0.9,1,1.6c0.3,1.1,0.5,2.2,0.6,3.3
			C1068.8,166.4,1068.8,168.3,1068.8,170.6z"/>
		<path class="st0" d="M1185.9,186.3c0,0.6-0.2,1.3-0.6,1.8c-0.6,0.6-1.3,1-2.1,1.3c-1.3,0.4-2.6,0.7-3.9,0.8
			c-2,0.2-4.1,0.3-6.2,0.3c-2.1,0-4.2-0.1-6.3-0.3c-1.3-0.1-2.6-0.4-3.9-0.8c-0.8-0.2-1.5-0.7-2-1.3c-0.4-0.5-0.6-1.1-0.6-1.8v-51.1
			H1113v51.1c0,0.6-0.2,1.3-0.6,1.8c-0.5,0.6-1.3,1.1-2.1,1.3c-1.3,0.4-2.6,0.7-3.9,0.8c-4.1,0.4-8.3,0.4-12.4,0
			c-1.4-0.1-2.7-0.4-4-0.8c-0.8-0.2-1.5-0.7-2.1-1.3c-0.4-0.5-0.6-1.1-0.6-1.8V66.9c0-0.6,0.2-1.3,0.6-1.8c0.6-0.6,1.3-1,2.1-1.3
			c1.3-0.4,2.6-0.6,4-0.8c4.1-0.4,8.3-0.4,12.4,0c1.3,0.1,2.6,0.4,3.9,0.8c0.8,0.2,1.5,0.7,2.1,1.3c0.4,0.5,0.6,1.1,0.6,1.8v46.4
			h47.3V66.9c0-0.6,0.2-1.3,0.6-1.8c0.5-0.6,1.2-1,2-1.3c1.3-0.4,2.6-0.6,3.9-0.8c2.1-0.2,4.2-0.3,6.3-0.3c2.1,0,4.1,0.1,6.2,0.3
			c1.3,0.1,2.6,0.4,3.9,0.8c0.8,0.2,1.5,0.7,2.1,1.3c0.4,0.5,0.6,1.1,0.6,1.8L1185.9,186.3z"/>
		<polygon class="st0" points="164.3,115.7 145.5,115.7 145.5,96.7 123.7,96.7 123.7,115.7 104.2,115.7 104.2,136.8 123.7,136.8 
			123.7,156.8 145.5,156.8 145.5,136.8 164.3,136.8 		"/>
		<rect x="90.5" y="148.1" class="st0" width="21.9" height="21.9"/>
		<rect x="90.5" y="82.5" class="st0" width="21.9" height="21.9"/>
		<rect x="156.8" y="82.5" class="st0" width="21.9" height="21.9"/>
		<path class="st0" d="M33,25.7v203.7h203.7V25.7H33z M190,115.7h-20.6v21.1H190v44.5h-44.5v-19.5h-21.8v19.5H79.2v-44.5h19.9v-21.1
			H79.2V71.2h44.5v20.4h21.8V71.2H190V115.7z"/>
		<rect x="156.8" y="148.1" class="st0" width="21.9" height="21.9"/>
	</g>
</g>
</svg>
